<svg width="100" height="100" viewBox="0 0 100 100" fill="none" xmlns="http://www.w3.org/2000/svg">
<g clip-path="url(#clip0_49_179)">
<path d="M52.6208 33C51.845 32.9982 51.0765 33.1495 50.3594 33.4454C49.6422 33.7412 48.9905 34.1758 48.4417 34.7241L35.0627 48.1017C34.8412 48.3235 34.7168 48.6241 34.7168 48.9375C34.7168 49.2509 34.8412 49.5515 35.0627 49.7733C35.2845 49.9948 35.5851 50.1192 35.8985 50.1192C36.2119 50.1192 36.5125 49.9948 36.7343 49.7733L50.1105 36.3972C50.4386 36.0654 50.8292 35.8021 51.2597 35.6223C51.6902 35.4426 52.1522 35.35 52.6187 35.35C53.0853 35.35 53.5472 35.4426 53.9777 35.6223C54.4083 35.8021 54.7989 36.0654 55.1269 36.3972C55.4587 36.7252 55.722 37.1158 55.9018 37.5464C56.0815 37.9769 56.1741 38.4388 56.1741 38.9054C56.1741 39.3719 56.0815 39.8339 55.9018 40.2644C55.722 40.6949 55.4587 41.0855 55.1269 41.4136L45.1692 51.3742L45.0275 51.5158C44.806 51.7376 44.6816 52.0382 44.6816 52.3517C44.6816 52.6651 44.806 52.9657 45.0275 53.1875C45.2493 53.409 45.5499 53.5334 45.8633 53.5334C46.1768 53.5334 46.4774 53.409 46.6992 53.1875L46.8408 53.0487L56.8 43.0838C57.1281 42.7519 57.5188 42.4883 57.9494 42.3085C58.3801 42.1286 58.8422 42.036 59.3089 42.036C59.7756 42.036 60.2377 42.1286 60.6684 42.3085C61.0991 42.4883 61.4898 42.7519 61.8178 43.0838L61.8872 43.1547C62.2188 43.4827 62.482 43.8732 62.6616 44.3036C62.8412 44.734 62.9337 45.1958 62.9337 45.6622C62.9337 46.1286 62.8412 46.5903 62.6616 47.0207C62.482 47.4511 62.2188 47.8416 61.8872 48.1697L49.7889 60.268C49.2755 60.7877 48.9875 61.4889 48.9875 62.2195C48.9875 62.95 49.2755 63.6512 49.7889 64.1709L52.2723 66.6543C52.4941 66.8758 52.7947 67.0002 53.1082 67.0002C53.4216 67.0002 53.7222 66.8758 53.944 66.6543C54.1655 66.4325 54.2899 66.1319 54.2899 65.8185C54.2899 65.5051 54.1655 65.2045 53.944 64.9827L51.4606 62.4993C51.4216 62.4639 51.3905 62.4209 51.3692 62.3728C51.348 62.3247 51.337 62.2727 51.337 62.2202C51.337 62.1676 51.348 62.1156 51.3692 62.0676C51.3905 62.0195 51.4216 61.9764 51.4606 61.9411L63.5589 49.8428C64.6628 48.732 65.2824 47.2296 65.2824 45.6636C65.2824 44.0976 64.6628 42.5952 63.5589 41.4844L63.4881 41.4136C62.9394 40.865 62.2877 40.4302 61.5706 40.1341C60.8534 39.838 60.0848 39.6864 59.3089 39.6881C59.0256 39.6881 58.7408 39.7164 58.4589 39.7561C58.5934 38.8462 58.5136 37.9175 58.2259 37.0439C57.9381 36.1703 57.4504 35.3759 56.8014 34.7241C56.2524 34.1756 55.6005 33.741 54.8831 33.4451C54.1657 33.1492 53.3969 32.998 52.6208 33ZM52.6208 37.7218C52.3074 37.7229 52.007 37.8476 51.785 38.0688L41.8896 47.96C40.7852 49.0711 40.1653 50.574 40.1653 52.1406C40.1653 53.7072 40.7852 55.2101 41.8896 56.3212C43.0007 57.4256 44.5036 58.0454 46.0702 58.0454C47.6367 58.0454 49.1397 57.4256 50.2507 56.3212L60.1433 46.43C60.3648 46.2082 60.4892 45.9076 60.4892 45.5942C60.4892 45.2807 60.3648 44.9801 60.1433 44.7583C59.9215 44.5369 59.6209 44.4125 59.3075 44.4125C58.9941 44.4125 58.6935 44.5369 58.4717 44.7583L48.5762 54.6523C48.2482 54.9839 47.8577 55.2471 47.4273 55.4267C46.9969 55.6063 46.5351 55.6988 46.0687 55.6988C45.6024 55.6988 45.1406 55.6063 44.7102 55.4267C44.2798 55.2471 43.8893 54.9839 43.5612 54.6523C43.2297 54.3243 42.9665 53.9338 42.7869 53.5034C42.6073 53.073 42.5148 52.6112 42.5148 52.1448C42.5148 51.6785 42.6073 51.2167 42.7869 50.7863C42.9665 50.3559 43.2297 49.9654 43.5612 49.6373L53.4538 39.7419C53.6753 39.5201 53.7997 39.2195 53.7997 38.9061C53.7997 38.5927 53.6753 38.292 53.4538 38.0703C53.2318 37.849 52.9314 37.7243 52.618 37.7232" fill="white"/>
</g>
<defs>
<clipPath id="clip0_49_179">
<rect width="100" height="100" fill="white"/>
</clipPath>
</defs>
</svg>
