<?xml version="1.0" encoding="UTF-8"?>
<svg id="Layer_1" data-name="Layer 1" xmlns="http://www.w3.org/2000/svg" viewBox="0 0 467.96 468">
  <defs>
    <style>
      .cls-1 {
        fill: #010101;
      }

      .cls-2 {
        fill: #cccdcd;
      }

      .cls-3 {
        fill: #fff;
      }
    </style>
  </defs>
  <path class="cls-1" d="M467.45,99.28c-2.22-24.97-15.06-46.12-35.82-61.96-35.94-27.43-72.63-25.37-116.06-25.35l-156.69.02c-15.32,0-34.25-.51-49.17.79-27.49,2.19-52.88,14.36-70.49,33.8-10.23,11.1-17.2,24.39-20.28,38.63-2.78,12.76-1.97,34.23-1.97,48.01l-.06,117.27c0,8-.17,16.53.23,24.52.12,2.35,1.52,3.04,3.54,4.56l-1.71.47c-4.64.66-6.24.54-9.53,3.64,1.24-13.37.51-36.78.51-50.99v-91.39c-.06-43.64-4.77-81.63,36.66-113.16C80.28,2.51,108.54,5.3,149.54,5.3h159.87c27.73.01,57.75-1.67,84.35,6.17,27.7,8.17,52.28,27.2,67.02,50.03-7.51-21.68-29.26-42.37-51-52.7C387.09-1.99,353.28.3,327.92.29h-170.62c-23.73,0-54.85-1.84-77.33,3.77C52.29,10.98,27.56,34.52,13.95,56.88-1.3,81.9.06,101.49.06,129.06l.02,127.2c0,12.54-.16,25.07,0,37.61.12,9.63,5.89,21.22,16.85,23.75,6.32.5,24.08.83,30.63.82-.29,1.92-1.07,6.22-.02,7.74.18,4.97,1.15,8.7,5.14,12.38,3.44,3.14,8.11,4.88,12.97,4.83,4.76-.01,9.14-1.55,12.42-4.74,6.01-5.86,4.89-12.54,4.73-19.92,1.78-.32,4.49-.51,6.2-.04-.26,2.19-.36,4.47-.42,6.67-.11,4.06-.06,8.25,0,12.35.45,27.69-.98,55.59.53,83.21.17,3.03,2.06,6.39,4.4,8.52,3.36,3.05,7.93,4.74,12.67,4.67,4.37-.12,8.52-1.82,11.53-4.72,2.4-2.35,3.93-5.33,4.37-8.51.87-5.99.39-27.68.39-34.67l-.05-67.48.39-.88c4.73-.03,9.91-.16,14.59,0,1.94.27,3.88.5,5.83.71-.26,30.89-.28,61.86-.17,92.75l-.08,25.87c-.04,6.3-.2,12.5.56,18.67.88,7.12,9.28,12.47,16.75,12.14,19.96-.86,16.86-19.84,16.86-31.95v-87.34c.01-9.55.22-20.56-.11-29.99,1.3-.52,4.59-.71,6.19-.87,4.44-.01,8.94-.07,13.38-.04l.87.98c-.46,15.86-.83,33.19.57,48.73,1.03,11.42,21.95,14.57,28.2,6.38,7.2-9.42,4.11-33.8,4.29-45.22.93-1.06.56-8.38.55-10.25,3.73-.34,18.68-.72,21.86.28-.12,7.08-.69,43.44.56,48.69.58,2.54,1.97,4.87,3.99,6.69,3.28,2.99,7.76,4.62,12.38,4.51,19.7-.61,16.39-19.22,16.46-31.76.05-9.29.1-18.89-.15-28.15,3.15-.63,15.47-.37,19.01-.21.95.6.71.26,1.01.79-.61,29.89-.17,60.91-.16,90.87l-.02,27.13c0,4.03-.41,15.65.64,18.83,5.73,17.4,32.4,15.45,33.57-4.57.41-.52,1.16-122.29.19-133.13,3.67-.03,7.83.08,11.38-.54h3.23c1.71.21,2.86.33,4.56.72.91,1.19.7,2.44.73,3.96.5,4.41.19,18.94.19,23.99l-.05,51.06c-.02,5.65-.5,18.64.55,23.73.56,2.73,1.91,5.27,3.9,7.37,9.44,10.11,27.89,4.8,28.93-8.5.85-10.8.48-21.85.48-32.71l-.21-68.76c.78-.23,3.96-.29,7.3-.33,0,3.69-.58,9.53.53,13.11,3.7,11.89,18.93,15.9,28.96,7.55,4.72-5.05,5.36-14.17,5.24-20.75,6.4-.1,12.79-.41,16.13-1.15,2.34-.51,4.3-.72,4.3-.72,10.7-4.42,10.06-17.48,10.52-26.21.55-10.35.73-20.37.73-30.74v-123.43c.03-11.64.44-25.52-.38-36.78Z"/>
  <path class="cls-2" d="M24.11,281.36c-1.12-.58-2.3-1.24-3.43-1.8l-1.71.47c-2.88,1.43-4.27,1.57-6.54,3.66-.86,1.83,0,9.88.34,12.3,1.57.86,3.73.82,5.71,1.02-.66,5.02-.05,16.93-.05,16.93l.4-.06c1.98-2.42.79-13.78.42-16.98l7.76-.48c-.06-4.49,1.82-12.6-2.9-15.05ZM25.58,294.57c-.18.82-.62.71-1.46,1.02-3.39.15-6.93.13-10.34.17-.07-3.95-1.75-10.99,1.65-13.38,11-1.27,12.07,3.43,10.14,12.19Z"/>
  <path class="cls-3" d="M334.78,107.37c29.37-2.44,55.35,17.32,58.1,44.17,2.75,26.85-18.79,50.67-48.14,53.26-29.47,2.59-55.63-17.19-58.39-44.15-2.76-26.96,18.95-50.84,48.43-53.28Z"/>
  <path class="cls-1" d="M383.61,147.28c-.7-2.76-1.81-5.62-3.28-8.13,1.29-2.07,1.95-4.14,2.81-6.39-2.07-5.17-3.44-6.39-7.81-9.78-3.26-.41-6.15-.39-9.43-.44-35.1-21.63-79.38,5.36-70.86,42.15,2.51,10.79,9.62,20.22,19.75,26.2,10.72,6.33,23.07,7.97,35.46,5.42,11.5-2.43,21.46-8.96,27.69-18.14,6.25-9.22,8.29-20.31,5.67-30.89ZM325.07,183.43c-8.18-3.61-14.4-10.1-17.23-18-2.82-7.63-1.94-16.41,2.06-23.54,3.99-7.02,10.92-12.26,19.21-14.52,10.13-2.78,19.91-1.25,29.05,3.28.92,8.06,2.55,11.2,11.49,13.96.35.73.68,1.48.98,2.23,9.87,24.55-19.18,48.08-45.55,36.58Z"/>
  <path class="cls-3" d="M102.58,122.74c19.56-19.16,52.15-20.82,73.91-3.76,21.76,17.06,24.95,46.78,7.23,67.38-17.72,20.61-50.04,24.78-73.3,9.45-23.26-15.32-29.18-44.68-13.43-66.58,1.66-2.3,3.53-4.48,5.58-6.49Z"/>
  <path class="cls-2" d="M424.46,296.38c.18-7.56,2.71-15.3-8.46-15.04-9.67,2.41-6.34,7.28-6.38,15.11,2.17.17,4.34.36,6.51.57-.56,3.14-2.13,13.43-.24,16.06l1.55-.25c-.63-3.6-.27-12.15-.02-15.91l7.04-.53ZM410.76,295.76c.02-3.28-.49-6.78-.02-10.03.27-1.83,1.01-1.9,2.57-2.87,4.77-.33,9.11-.98,10.52,4.27.4,1.5-.47,6.52-.96,8.05l-1.11.52-11,.06Z"/>
  <path class="cls-2" d="M175.04,296.41c.25-8.14,2.61-15.54-9.22-15.07-3.01.85-3.95,1.33-6.18,3.44.19,2.36.28,9.57.79,11.13,1.54.87,2.7.8,4.5.95,2.62,3.17-.91,14.27,1.62,16.28l.95-.39c.34-1.59.41-.77-.7-2.48,4.43-5.2-6.74-13.43,8.24-13.87ZM161.37,295.67c.05-3.23-.48-6.72-.03-9.94.25-1.8.95-1.87,2.43-2.84,1.57-.14,5.44-.45,6.78.05,1.81.66,3.19,2.05,3.73,3.76.63,1.96-.03,6.69-1.05,8.4l-1.63.4c-3.45.26-6.78.19-10.24.17Z"/>
  <path class="cls-2" d="M111.49,281.29c-2.51,1.12-3.44,1.51-5.64,3.06.13,4.05.27,7.92.14,11.98,1.99.26,4.45.27,5.79,1.25.08,2.6-.3,11.31.56,12.64,1.27-.44.79-.08,1.5-1.05-.76-6.56-2.94-12.29,5.82-12.76.53-.03,1.06-.05,1.59-.07.3-8.31,2.43-15.73-9.76-15.05ZM120.02,295.2c-1.73.23-4.44.33-6.26.46-1.9.09-3.3.37-4.97-.4-3.24-3.29-2.52-7.55-.29-11.16.75-1.22,3.41-1.44,4.84-1.66,9.16.99,7.04,5.81,6.67,12.77Z"/>
  <path class="cls-2" d="M318.6,281.46c-1.77.53-4.24,1.16-4.83,3.01-1.23,3.9-2.48,8.32.52,11.76,2.37.5,3.51.23,4.5,1.59-.08,4.06-.56,8.69.02,12.54.15,1.01.11.87-.03,1.79l.4.4.9.12c.65-1.94.35-12.96.35-15.84l7.62-.59c.12-8.09,2.55-15.82-9.45-14.78ZM326.6,294.6c-.22.85-.73.75-1.65,1.12-3.49.01-6.99-.03-10.49-.15-.24-4.31-1.6-9.84,2.14-12.7,10.6-1.45,12.28,2.99,10,11.73Z"/>
  <path class="cls-2" d="M379.13,296.5c.38-8.46,2.64-16.44-10.19-15.05-7.46,3.4-4.64,8.02-4.57,14.73,1.85.17,4.08.17,5.58,1.05.14,2.2-.21,11.73.15,12.77l1.01.4,1.04-.55c.2-1.3.24-.83-.08-2.13l.07-.93c.46-7.29-4.05-10.05,6.98-10.29ZM366.97,295.25c-2.92-1.93-1.98-8.73-.33-11.2.88-1.31,3.11-1.45,4.62-1.7,7.99.4,8.77,6.28,6.14,12.14-.54,1.19-3.15,1.15-4.41,1.3-2.76-.01-3.4.04-6.02-.54Z"/>
  <path class="cls-2" d="M267.76,281.35c-8.02,1.2-8.01,6.18-6.8,12.9.62,3.46,3.72,1.41,5.64,3.36.03,3.35-1.04,13.91.66,15.68l.89-.15.32-.46c-.1-2.89-.64-13.74.78-15.69,2.69-.51,3.68-.48,6.49-.51.26-7.25,2.62-15.05-7.97-15.14ZM274.16,294.93l-1,.48c-3.19.27-6.76.69-9.82-.09-2.46-2.03-1.71-10.06.57-12.4,11.37-1.34,12.41,2.87,10.25,12.01Z"/>
  <path class="cls-2" d="M58.95,281.28c-2.6.96-3.41,1.26-5.72,2.67.03,4.11.02,8.23-.02,12.34,2.15.24,4.11.23,5.82,1.4.1,2.99-.96,11.02.32,12.64.78-.51.6-.21.8-.74.05-4.15.38-8.56.47-12.81l7.77-.4c.19-8.38,2.63-15.45-9.44-15.1ZM66.68,294.77c-.19.62-1.27.55-1.97.65-3.17.33-6.39.84-9.36-.17-2.3-2.48-1.44-9.87,1.37-12.32,10.52-1.32,12.76,2.7,9.96,11.83Z"/>
  <path class="cls-2" d="M454.72,281.4c-8.5,2.96-5.43,7.65-5.47,14.79l6.04.88c-.54,4.77-.87,11.16-.38,15.94l.73.3c.3-.46.65-.88.78-1.35.24-4.91-1.01-11.86,1.56-14.76,1.7-.95,3.85-.76,5.92-.8.42-8.11,2.94-15.87-9.18-15ZM461.77,295.05c-1.74,1-3.41.72-5.54.69-1.76.07-2.87.29-4.42-.45-3.15-3.43-2.49-7.79.01-11.41.86-1.23,3.35-1.36,4.85-1.57,2.66.3,3.64.71,6.21,1.55.25,3.77,1.29,8.44-1.12,11.19Z"/>
  <path class="cls-2" d="M223.23,296.38c.06-7.52,2.24-15.42-8.96-15.02-3.01.87-4.07,1.19-6.28,3.26.17,3.83.4,7.78.5,11.6l6.01.91c-.7,5.18-1.04,9.7-.49,14.92l.66.75.99-.25c.51-1.58.49-.76-.32-2.52,3.72-6.49-6.53-12.89,7.89-13.66ZM209.5,295.43c-.17-4.08-1.32-9.61,1.87-12.54,2.65-.33,5.07-.63,7.69.3,4.14,1.48,3.85,10.09,1.94,12.54-4.34.06-7.2.06-11.5-.31Z"/>
  <path class="cls-1" d="M180.72,134.64c-11.19-16.88-34.81-24.03-54.96-17.4-4.18,1.37-7.55,3.26-11.35,5.37-3.4-.37-8.41-.19-11.83.14-2.06,2.02-3.93,4.19-5.58,6.49.95,3.86,1.04,7.66,3.43,10.79-.95,1.85-1.58,3.21-2.22,5.14-3.36,10.36-2.04,21.51,3.66,30.97,5.83,9.66,15.65,16.79,27.26,19.79,11.97,3.08,24.8,1.64,35.61-3.98,10.6-5.58,17.94-14.92,20.97-25.71,3.11-10.71,1.31-22.12-4.98-31.6ZM173.47,165.32c-2.73,7.7-8.71,14.08-16.62,17.71-8.08,3.65-17.42,4.23-25.96,1.6-15.91-4.9-25.61-19.87-21.31-35.26.46-1.65,1.08-3.08.82-4.78-.63-.31-1.02-.53-1.7-.74,8.71.51,12.7-5.92,13.34-12.95,17.27-8.76,39.31-5.82,49.06,10.93,4.25,7.21,5.11,15.69,2.36,23.49Z"/>
</svg>